<svg width="531" height="612" viewBox="0 0 531 612" fill="none" xmlns="http://www.w3.org/2000/svg">
<mask id="mask0_100_208" style="mask-type:luminance" maskUnits="userSpaceOnUse" x="0" y="0" width="615" height="612">
<path d="M0 0H614.701V611.718H0V0Z" fill="white"/>
</mask>
<g mask="url(#mask0_100_208)">
<path d="M599.08 266.689C585.731 242.872 566.031 222.844 547.11 203.548C521.191 177.288 495.269 153.471 460.925 150.785C452.761 150.296 444.597 150.785 436.691 152.13C439.283 147 441.486 141.627 443.431 136.251C449.911 117.443 449.779 96.1914 442.781 76.2847C435.782 56.3781 422.565 39.1577 405.458 27.6775C390.811 18.149 373.835 12.4089 356.081 11.0673C340.396 4.59247 323.16 2.02746 306.053 3.49365C289.335 -0.291539 271.97 -0.048815 255.381 4.2251C238.273 3.12628 221.037 6.30138 205.614 13.1436C185.395 15.0952 165.309 23.525 148.977 36.9568C145.738 39.6465 142.626 42.4542 139.776 45.5079C138.611 45.7507 137.574 45.8753 136.408 46.118C125.39 48.683 116.708 55.4006 109.452 61.7508L108.415 62.6069C104.138 66.3921 99.8611 70.1773 95.5842 74.0871C85.4749 78.4824 78.2157 86.4234 72.3833 93.6264L71.6072 94.7252C68.1064 99.1238 64.609 103.644 61.1082 108.16C51.9071 114.025 46.207 123.062 41.9301 131.245L41.2793 132.466C38.6902 137.35 35.9689 142.358 33.3763 147.367C25.4698 154.695 21.5827 164.587 18.7291 173.256L18.3429 174.48C16.6586 179.731 14.9708 185.104 13.2865 190.48C6.80676 198.907 4.7327 209.288 3.56691 218.324L3.43815 219.669C1.62161 233.957 -0.320212 248.737 0.198303 263.146C0.974336 282.568 5.51221 301.618 13.6762 319.327C19.3799 331.785 26.1171 343.879 34.0236 355.234L32.5968 471.748C32.3393 491.17 33.2441 511.198 46.4645 524.633C55.2792 533.548 67.0728 537.579 80.0322 539.409C83.5296 547.472 88.325 554.678 95.713 559.93C105.304 566.768 116.708 568.966 128.891 568.966C129.799 568.966 130.704 568.966 131.612 568.966C136.536 576.418 142.626 582.647 150.794 586.554C157.402 589.729 164.79 591.316 172.307 591.195C177.492 591.195 182.674 590.585 187.73 589.608C193.949 596.079 201.076 601.33 209.891 603.895C214.039 605.119 218.444 605.729 222.85 605.729C230.885 605.729 238.921 603.774 246.827 600.845C254.083 606.218 262.118 610.124 271.19 611.223C273.007 611.469 274.82 611.591 276.504 611.591C295.296 611.591 312.275 599.743 327.956 587.531L384.982 543.198L394.959 543.319C398.327 543.319 401.7 543.319 405.197 543.319C432.285 543.319 463.646 541.732 488.399 526.466C499.027 519.749 508.1 510.955 514.969 500.695C520.801 497.52 526.244 493.61 531.168 489.215C540.369 480.788 547.757 470.771 552.681 459.537C557.867 455.384 562.533 450.743 566.549 445.613C574.066 435.842 579.508 424.729 582.23 412.881C586.507 407.997 590.265 402.621 593.376 397.006C599.08 386.136 602.191 374.288 602.709 362.198C606.078 356.7 608.799 350.839 610.745 344.731C618.39 321.161 614.242 293.438 599.08 266.689ZM441.225 135.641C439.154 141.381 436.691 147.121 433.841 152.618C428.137 153.717 422.433 154.816 416.733 156.161C412.456 157.135 408.179 158.112 403.902 158.847L402.737 159.09C404.16 152.982 405.976 146.878 407.918 140.528C410.64 131.367 413.493 121.841 414.916 112.559C417.899 93.0163 413.751 72.1322 403.255 53.6917C393.922 37.0815 379.668 23.4003 362.299 14.2424C377.204 16.194 391.461 21.5701 403.902 29.6292C438.375 52.3469 454.445 98.025 441.225 135.641ZM600.635 361.463C596.23 368.548 591.045 375.265 585.212 381.373C584.951 377.22 584.565 372.943 584.046 368.669C580.159 342.045 568.884 316.887 558.124 292.582C543.352 259.483 527.539 228.706 496.306 215.149C482.699 209.288 467.534 207.576 452.89 205.867C448.613 205.378 444.079 204.889 439.802 204.279C431.895 203.302 424.25 201.593 416.733 199.149C417.899 193.288 419.712 187.669 422.047 182.175H424.121C428.527 182.05 433.061 181.808 437.338 181.562C451.853 180.83 466.886 179.974 481.015 183.516C513.413 191.579 534.408 218.935 554.755 248.737C569.789 270.72 585.47 293.559 594.156 318.839C598.951 332.641 601.154 347.054 600.635 361.463ZM15.3605 191.333C16.14 190.355 16.9161 189.378 17.8243 188.525C14.9708 201.96 13.9337 215.759 14.7132 229.562C16.2688 259.119 24.8226 287.573 34.6709 315.299L34.5421 330.808C25.2088 312.61 17.1736 293.802 12.3817 273.895C7.71503 255.33 6.678 236.034 9.5281 216.983C10.8261 208.432 12.7679 199.759 15.3605 191.333ZM35.3181 148.587C36.2264 147.731 37.2634 147 38.1717 146.143C34.1523 155.793 31.1735 165.807 29.2282 176.067C26.6356 177.776 24.304 179.61 21.969 181.562C22.7485 178.632 23.6568 175.821 24.6938 172.892C27.5439 164.587 31.1735 156.525 35.3181 148.587ZM62.6637 109.748C63.7008 109.138 64.8665 108.406 65.9036 107.796C60.2034 116.59 55.2792 125.994 51.5209 135.762C48.6673 136.986 45.946 138.452 43.3534 140.039C44.6514 137.228 46.0747 134.542 47.6303 131.977C52.1681 124.282 57.2211 116.833 62.6637 109.748ZM96.8788 75.9174C104.914 72.8636 113.339 71.1547 122.022 70.912C119.429 76.5275 117.355 82.2708 115.932 88.2537C115.281 91.0614 114.766 93.8724 114.247 96.8015C110.357 96.5588 106.341 96.4374 102.454 96.5588C92.0834 96.9262 81.9741 99.0024 72.3833 102.545C74.1998 100.101 76.0129 97.6576 77.9582 95.3386C83.9194 88.4997 90.1415 82.0248 96.8788 75.9174ZM207.427 15.0952C209.891 14.8525 212.355 14.8525 214.686 14.8525C218.834 14.8525 222.85 15.0952 226.998 15.7086C213.907 23.1576 202.893 33.1716 194.596 45.2619C192.912 47.7056 191.489 50.2706 189.933 52.7142C186.303 51.1267 182.674 49.7819 178.787 48.683C174.767 47.4629 170.623 46.4854 166.346 45.8753C176.713 32.6829 190.452 22.1802 206.261 15.2199L207.427 15.0952ZM255.899 6.30138L256.804 6.42602C263.287 7.03611 269.767 8.2563 275.986 10.0899C268.469 12.8976 261.471 16.44 254.862 20.714C248.122 17.9062 240.995 15.83 233.735 14.4851C240.866 11.0673 248.25 8.2563 255.899 6.30138ZM307.09 5.93729C313.441 7.52484 319.531 9.84385 325.363 12.7762C317.46 14.2424 309.811 16.5614 302.555 19.7365C296.333 15.9513 289.853 12.7762 282.984 10.2112C290.501 7.89221 298.278 6.42602 306.185 5.69129C306.442 5.81593 306.832 5.93729 307.09 5.93729ZM356.728 13.7537C394.701 30.6066 418.807 72.9883 412.842 112.192C411.419 121.353 408.569 130.757 405.844 139.915C403.902 146.389 401.957 152.982 400.534 159.457C393.922 160.677 387.185 161.287 380.444 161.412C378.241 149.319 379.536 136.129 381.091 122.33C382.128 112.802 383.165 102.909 382.908 93.6264C382.257 73.8411 374.222 53.9344 360.486 37.5702C352.58 28.1663 343.118 20.2252 332.232 13.9964C340.01 13.0189 348.045 12.7762 355.82 13.3863C356.081 13.5077 356.338 13.6323 356.728 13.7537ZM535.706 379.661C533.89 343.879 530.131 309.802 505.768 287.084C495.14 277.192 481.533 270.72 468.313 264.491C464.426 262.658 460.407 260.706 456.648 258.751C435.135 247.881 422.433 235.666 417.77 221.746C417.252 220.033 416.733 218.324 416.472 216.494C424.768 222.966 435.782 228.463 449.911 232.858C454.056 234.203 458.465 235.423 462.609 236.522C476.606 240.432 490.992 244.585 502.914 252.401C530.521 270.474 540.241 302.842 548.537 337.404C553.718 359.023 559.161 381.248 560.069 403.723C556.311 406.652 552.681 409.585 549.184 412.271L536.743 421.921C537.262 407.876 536.482 393.706 535.706 379.661ZM413.493 210.997C410.382 207.943 407.661 204.525 405.587 200.737C404.678 199.149 404.031 197.562 403.384 195.853C406.881 197.683 410.382 199.271 414.14 200.615C413.622 204.037 413.361 207.576 413.493 210.997ZM403.641 201.714C406.234 206.477 409.735 210.629 413.879 214.293C414.269 216.983 414.788 219.669 415.696 222.356C420.491 236.89 433.58 249.347 455.611 260.581C459.498 262.536 463.518 264.491 467.405 266.322C480.364 272.55 493.846 278.904 504.212 288.551C528.057 310.78 531.687 344.364 533.503 379.785C534.279 394.316 535.055 409.096 534.537 423.873L443.818 494.587L401.31 517.305L355.301 532.695L307.09 540.387L193.173 539.534L81.9741 411.661L79.6425 408.975L60.2034 376.364C59.5561 375.265 59.0376 374.409 58.3868 373.311L45.2987 338.135L44.1329 334.839L37.782 297.954C37.6532 296.856 37.3922 295.635 37.1347 294.537L37.6532 257.164C38.0395 228.338 38.4292 198.785 44.1329 170.081C45.6884 169.35 47.244 168.74 48.9283 168.13C54.4997 166.175 60.0711 164.466 65.7748 163.121C77.4397 160.067 89.4908 157.014 98.6953 148.587C105.433 142.358 109.191 134.421 111.522 125.869C116.318 124.649 120.985 122.694 125.133 120.129C133.039 115.124 138.092 107.918 141.979 99.8552C147.036 99.4912 151.831 98.2677 156.494 96.3161C165.18 92.649 171.528 86.4201 176.841 79.0925C181.898 79.4598 186.822 79.0925 191.746 77.9937C200.947 75.796 208.335 70.666 214.944 64.4372C219.739 65.6606 224.795 66.1494 229.848 65.782C246.698 64.5585 259.529 53.567 272.099 42.8216C274.301 40.8667 276.765 38.9117 279.097 36.9568C292.056 46.7281 302.166 59.4318 308.516 73.8411C312.146 82.3922 314.735 91.9175 317.199 101.2C322.903 122.33 328.735 144.192 348.045 155.793C352.841 158.601 358.022 160.677 363.597 161.901C365.282 164.099 367.224 166.175 369.426 168.005C373.574 171.548 378.37 174.48 383.555 176.435C384.85 178.875 386.405 181.197 388.222 183.395C391.719 187.548 395.867 191.211 400.663 194.144C401.181 196.709 402.347 199.271 403.641 201.714ZM534.408 426.805C534.151 433.644 533.503 440.362 532.595 447.079C528.447 449.398 524.299 451.599 520.283 453.675L454.964 488.483L534.408 426.805ZM433.708 502.283L424.636 509.367L413.493 513.153L433.708 502.283ZM390.035 523.288L379.668 528.785L368.003 530.619L390.035 523.288ZM342.989 536.723L331.843 540.512L320.049 540.387L342.989 536.723ZM294.259 542.342L207.559 556.144L194.986 541.61L294.259 542.342ZM190.191 539.409L157.274 539.167L85.8647 419.477L190.191 539.409ZM29.8755 186.327C30.2652 183.274 30.7837 180.22 31.3023 177.288C34.5421 175.09 38.0395 173.135 41.5403 171.426C36.0976 199.759 35.7079 228.952 35.3181 257.285L35.0606 282.443C29.7467 250.689 25.4698 218.324 29.8755 186.327ZM37.0024 306.748L39.856 323.116C38.819 320.426 37.9107 317.618 36.8737 314.932L37.0024 306.748ZM71.3497 399.325C69.4044 397.127 67.4591 394.805 65.6461 392.607L62.796 384.912L71.3497 399.325ZM52.0394 362.44C50.6126 359.875 49.057 357.435 47.6303 354.87L46.207 346.808L52.0394 362.44ZM44.5192 167.516C46.0747 160.189 48.02 152.982 50.3516 145.901C51.2599 142.968 52.2969 140.039 53.4627 137.228C59.5561 134.542 65.9036 132.466 72.3833 131.121C78.2157 130.022 84.0481 129.291 89.8805 128.923C96.2315 128.559 102.582 127.703 108.801 126.483C106.598 134.299 102.972 141.381 96.8788 147.121C88.1962 155.183 76.4026 158.112 64.9988 161.166C59.1664 162.511 53.4627 164.22 47.8913 166.296C46.8542 166.664 45.6884 167.152 44.5192 167.516ZM116.189 99.0024L120.208 99.2452C126.559 99.8552 132.907 100.101 139.387 99.8552C135.76 107.183 130.965 113.658 123.835 118.178C120.208 120.497 116.318 122.206 112.173 123.304C113.597 117.443 114.505 111.335 115.413 105.231C115.542 103.276 115.932 101.2 116.189 99.0024ZM151.57 74.2085L155.457 75.1859C161.55 76.8948 167.769 78.1183 174.12 78.9711C169.196 85.5673 163.235 91.1861 155.457 94.4825C151.441 96.1914 147.293 97.1689 143.016 97.6576C145.48 92.0389 147.554 86.1774 149.496 80.4373C150.143 78.2397 150.794 76.1634 151.57 74.2085ZM178.139 77.0162C181.637 72.0108 184.748 66.5134 187.73 61.1407C188.767 59.3071 189.801 57.3555 190.97 55.4006L194.596 56.9881C200.3 59.6745 206.261 61.8722 212.355 63.7057C206.261 69.3244 199.392 73.9657 191.099 75.9174C186.822 76.8948 182.545 77.2622 178.139 77.0162ZM216.631 62.6069C221.037 58.2083 225.053 53.3243 229.072 48.5617C232.698 44.1631 236.457 39.5218 240.476 35.3693C244.882 30.8526 249.806 26.7001 255.12 23.1576C262.898 26.4541 270.414 30.6066 277.152 35.6153C274.949 37.4456 272.617 39.4005 270.414 41.234C258.231 51.7368 245.529 62.4822 229.459 63.5843C225.182 63.9484 220.776 63.5843 216.631 62.6069ZM280.781 35.4939C282.337 34.1491 284.021 32.9289 285.577 31.7054C290.762 27.9203 296.333 24.7452 302.294 22.0588C323.807 35.7366 340.139 56.9881 345.324 80.68C347.266 89.7199 348.045 99.4912 348.821 109.016C350.248 126.726 351.672 145.045 361.395 159.09C356.985 157.991 352.841 156.161 348.95 153.96C330.419 142.726 324.844 122.33 319.012 100.59C316.552 91.3074 313.959 81.6575 310.201 72.9883C303.979 58.4543 293.741 45.5079 280.781 35.4939ZM381.999 173.502C376.167 170.937 370.982 167.152 366.837 162.511C370.724 163.121 374.74 163.488 378.76 163.61C379.407 167.028 380.444 170.327 381.999 173.502ZM389.774 182.175C388.608 180.709 387.571 179.243 386.666 177.776C390.424 178.997 394.312 179.974 398.199 180.709C398.327 184.251 398.717 187.669 399.625 191.09C395.867 188.525 392.499 185.471 389.774 182.175ZM385.111 174.847C383.294 171.305 381.871 167.516 380.962 163.61C387.442 163.488 393.793 162.878 400.144 161.776C398.978 167.274 398.327 172.892 398.199 178.511C393.664 177.655 389.255 176.435 385.111 174.847ZM380.573 93.6264C380.834 102.909 379.797 112.68 378.888 122.084C377.462 135.398 376.038 148.954 378.241 161.287C373.703 161.287 369.169 160.802 364.634 159.946C354.007 146.268 352.58 128.07 351.153 108.895C350.377 99.3665 349.601 89.4739 347.527 80.3159C343.25 61.0193 331.714 42.6969 315.125 28.7764C311.885 26.09 308.388 23.525 304.758 21.0813C312.404 17.9062 320.31 15.7086 328.603 14.3638C358.283 30.4853 379.407 61.5081 380.573 93.6264ZM300.091 20.8353C294.52 23.4003 289.206 26.5754 284.15 30.1179C282.337 31.4627 280.652 32.8043 278.968 34.1491C275.728 31.8301 272.488 29.6292 268.988 27.5529C265.229 25.3552 261.342 23.4003 257.455 21.6914C264.321 17.4175 271.838 13.875 279.615 11.1887C286.742 13.7537 293.612 16.9288 300.091 20.8353ZM252.66 22.1802C247.603 25.6013 242.94 29.6292 238.663 33.9064C234.644 38.0589 230.757 42.6969 227.127 47.0955C222.979 52.2255 218.702 57.2309 214.039 61.9968C207.688 60.1632 201.466 57.8442 195.505 55.0332L192.007 53.567C193.43 51.1267 194.986 48.683 196.542 46.3608C205.095 33.7817 216.889 23.4003 230.628 16.194C238.273 17.4175 245.529 19.3724 252.66 22.1802ZM178.139 50.638C181.766 51.7368 185.395 53.0783 188.767 54.5445C187.73 56.4994 186.693 58.333 185.656 60.1632C182.545 65.9034 179.177 71.5221 175.547 76.8948C168.938 76.1634 162.327 74.8186 155.976 73.1096L152.217 72.2535C153.125 69.5672 154.163 67.0022 155.328 64.4372C157.921 58.5757 161.161 53.0783 164.919 47.9516C169.457 48.437 173.863 49.4145 178.139 50.638ZM153.254 63.4597C152.088 66.1494 151.051 68.8357 150.014 71.6435C146.127 70.666 142.369 69.9345 138.35 69.4458C134.076 68.9571 129.928 68.7111 125.651 68.7111C129.667 61.0193 134.852 53.813 140.942 47.4629C148.073 46.4854 155.328 46.4854 162.455 47.4629C158.958 52.4682 155.847 57.8442 153.254 63.4597ZM138.092 71.5221C141.85 72.0108 145.609 72.7423 149.367 73.5984C148.72 75.5533 147.94 77.6296 147.293 79.5812C145.351 85.6887 143.016 91.7961 140.295 97.6576C133.686 98.025 126.946 97.779 120.337 97.0475L116.45 96.8015C116.969 93.9938 117.487 91.1861 118.006 88.4997C119.429 82.3922 121.632 76.2847 124.485 70.666C129.149 70.7874 133.686 71.0334 138.092 71.5221ZM102.454 98.6351C106.212 98.5137 110.099 98.6351 113.858 98.8778C113.468 100.954 113.21 103.03 112.949 105.107C112.173 111.46 111.004 117.81 109.452 124.16C102.972 125.505 96.3602 126.483 89.7518 126.847C83.7906 127.214 77.8294 128.07 71.8648 129.045C65.9036 130.268 60.0711 132.098 54.4997 134.299C58.5191 124.282 63.7008 114.635 69.9229 105.72C80.161 101.443 91.3073 99.0024 102.454 98.6351ZM50.6126 138.573C49.8331 140.771 48.9283 142.968 48.2775 145.291C45.8172 152.982 43.7431 160.802 42.1876 168.74C38.6902 170.449 35.1894 172.282 31.9495 174.359C34.1523 163.853 37.3922 153.596 41.9301 143.703C44.5192 141.748 47.5015 140.039 50.6126 138.573ZM28.5809 178.997C28.1912 181.319 27.8014 183.638 27.4151 185.96C22.4875 222.477 28.5809 259.119 34.7996 294.658L34.6709 308.703C25.7273 282.932 18.3429 256.554 16.9161 229.316C16.0078 214.539 17.4346 199.759 20.8032 185.35C23.267 183.149 25.8596 180.951 28.5809 178.997ZM36.7449 321.282C38.4292 325.924 40.1135 330.686 41.9301 335.327L44.3904 349.13C41.7978 344.489 39.2087 339.726 36.6162 334.96L36.7449 321.282ZM45.4274 355.602L48.1488 370.992C44.1329 365.616 40.1135 360.243 36.3552 354.745L36.4839 339.726C39.4663 344.977 42.4486 350.35 45.4274 355.602ZM48.6673 361.22C51.2599 365.616 53.7237 369.893 56.3128 374.167L61.2404 387.356C57.7396 383.203 54.371 378.929 51.0023 374.655L48.6673 361.22ZM63.572 393.585L117.616 538.921L106.212 538.799C98.0446 538.799 89.8805 538.435 81.7165 537.458C78.2157 528.907 76.2739 519.26 74.5896 509.61L51.9071 379.297C55.6655 384.181 59.6849 388.943 63.572 393.585ZM67.8489 398.593C71.2175 402.5 74.4573 406.285 77.8294 410.073L154.81 539.167L120.208 538.921L67.8489 398.593ZM155.976 541.364L168.42 562.373L157.145 564.203C149.11 565.548 140.942 566.526 132.778 566.89C127.854 559.195 124.224 550.158 120.856 541.122L155.976 541.364ZM158.568 541.364L192.007 541.61L204.967 556.508L170.752 561.884L158.568 541.364ZM206.651 558.342L222.85 576.907L212.094 580.571C204.448 583.257 196.542 585.455 188.635 587.285C182.416 580.446 177.102 572.141 172.178 563.836L206.651 558.342ZM209.243 557.975L307.218 542.463L325.624 542.588L225.053 576.172L209.243 557.975ZM332.232 542.588L353.488 542.709L268.988 587.774C261.989 591.684 254.601 595.105 247.085 598.155C239.7 592.415 232.959 585.209 226.48 577.881L332.232 542.588ZM338.455 540.512L355.82 534.647L373.964 531.718L357.375 540.512H338.455ZM380.444 530.862L401.439 527.565L384.202 540.997L361.91 540.876L380.444 530.862ZM386.148 527.808L402.218 519.26L419.583 513.52L404.939 524.876L386.148 527.808ZM425.805 511.319L484.902 491.534C497.604 487.26 511.729 482.497 525.207 476.268C522.228 484.206 518.209 491.901 513.413 498.986C491.382 511.076 464.426 515.35 441.876 518.893L409.216 524.023L425.805 511.319ZM484.123 489.582L430.858 507.413L445.116 496.3L521.449 455.506C524.95 453.675 528.576 451.72 532.205 449.644C531.687 452.819 531.039 455.873 530.392 459.048C529.355 463.811 527.928 468.573 526.244 473.336C512.248 480.178 497.472 485.062 484.123 489.582ZM532.595 459.537C533.503 455.873 534.151 452.088 534.669 448.299C542.833 443.904 550.74 439.017 558.256 433.89C556.83 442.316 554.366 450.497 550.868 458.317C544.128 463.568 536.872 468.209 529.094 471.994C530.392 467.963 531.558 463.811 532.595 459.537ZM535.055 445.613C535.964 438.774 536.482 431.814 536.743 424.85L550.74 413.98C553.847 411.54 557.091 409.096 560.33 406.531C560.459 409.706 560.459 412.881 560.33 416.056C560.198 420.944 559.68 425.828 558.904 430.712C551.126 436.209 543.223 441.093 535.055 445.613ZM562.401 416.181C562.533 412.392 562.533 408.607 562.401 404.822C569.531 399.082 576.401 393.096 583.009 386.746C583.138 395.172 582.101 403.723 580.159 411.904C574.456 418.257 568.105 423.873 561.235 429.003C561.882 424.85 562.272 420.576 562.401 416.181ZM562.272 402.136C561.106 380.028 555.921 358.288 550.868 337.036C542.443 301.986 532.466 269.133 504.341 250.689C492.029 242.63 477.514 238.477 463.389 234.446C459.241 233.226 454.964 232.002 450.816 230.782C435.782 226.019 424.25 220.279 416.086 213.194C415.696 209.167 415.696 205.257 416.343 201.226C423.86 203.669 431.638 205.378 439.412 206.356C443.818 206.966 448.223 207.454 452.5 207.943C467.019 209.531 481.92 211.24 495.14 216.983C525.597 230.172 541.149 260.581 555.793 293.313C566.549 317.497 577.695 342.412 581.711 368.915C582.491 373.799 582.881 378.683 583.009 383.571C576.53 390.164 569.531 396.392 562.272 402.136ZM414.53 198.418C410.253 196.952 406.105 194.997 402.347 192.678C401.181 188.892 400.534 184.861 400.402 180.83C406.752 181.808 413.232 182.175 419.583 182.175C417.252 187.548 415.696 192.92 414.53 198.418ZM400.273 178.875C400.402 173.014 401.049 167.152 402.347 161.412C402.994 161.287 403.774 161.166 404.421 161.045C408.698 160.189 413.103 159.211 417.38 158.358C422.433 157.26 427.618 156.161 432.803 155.183C431.638 157.502 430.601 159.7 429.303 162.022C426.192 168.13 423.084 174.234 420.363 180.463C413.622 180.341 406.881 179.853 400.273 178.875ZM349.211 10.6999C347.656 10.6999 345.971 10.6999 344.416 10.6999C339.231 10.8213 334.049 11.31 328.864 12.0448C323.679 9.35512 318.236 7.15748 312.665 5.3272C325.105 5.0812 337.546 6.79011 349.211 10.6999ZM299.183 4.34975C297.631 4.59247 296.076 4.83848 294.52 5.0812C289.464 6.05866 284.411 7.27884 279.487 8.99103C273.912 7.15748 268.079 5.81593 262.25 4.95984C274.43 2.51619 286.875 2.27347 299.183 4.34975ZM244.234 7.52484C239.439 9.35512 234.644 11.4314 230.109 13.875C224.277 13.0189 218.316 12.5302 212.483 12.6549C224.016 8.2563 236.328 6.05866 248.769 5.93729C247.217 6.54739 245.661 7.03611 244.234 7.52484ZM199.392 16.0727C197.968 16.8074 196.67 17.5389 195.247 18.2703C183.064 25.2339 172.436 34.3918 164.011 45.3866C157.274 44.4091 150.275 44.2878 143.535 44.8978C158.439 30.2393 178.139 19.6151 199.392 16.0727ZM109.97 64.1944L111.004 63.3383C117.873 57.2309 126.427 50.638 136.926 48.1943L137.316 48.0729C131.741 54.3018 126.946 61.2621 123.187 68.7111C115.671 68.8357 108.283 70.0559 101.027 72.1322C104.006 69.4458 106.988 66.8808 109.97 64.1944ZM73.4203 96.0701L74.1998 94.9712C78.3479 89.8412 83.1433 84.2225 89.2333 80.0699C84.5666 84.4685 80.2898 89.1098 76.1416 93.9938C73.4203 97.2902 70.8312 100.711 68.3674 104.132C67.5914 104.497 66.6831 104.864 65.9036 105.231C68.4961 102.178 70.96 99.1238 73.4203 96.0701ZM43.3534 133.443L44.0041 132.223C47.1117 126.483 50.8701 120.254 56.0553 115.124C52.2969 120.254 48.9283 125.627 45.6884 130.999C43.6144 134.663 41.6691 138.327 39.856 142.237C39.0765 142.726 38.4292 143.336 37.6532 143.824C39.595 140.282 41.4116 136.861 43.3534 133.443ZM20.5457 175.09L20.9319 173.87C22.8773 167.641 25.4698 160.923 29.7467 154.937C27.0254 160.556 24.5616 166.418 22.4875 172.282C21.0642 176.189 19.8984 180.22 18.8614 184.373C18.2106 184.983 17.5633 185.593 17.0448 186.203C18.0819 182.418 19.3799 178.754 20.5457 175.09ZM15.7503 318.596C7.71503 301.008 3.17716 282.2 2.40112 263.025C2.01137 248.737 3.82791 234.079 5.64097 219.912L5.76973 218.692C6.54924 212.342 7.84379 205.257 10.9549 198.66C9.39934 204.768 7.97255 210.754 7.06776 216.858C4.21419 236.034 5.25122 255.576 10.0466 274.505C15.2318 295.878 24.043 316.152 34.2811 335.695L34.0236 351.57C27.1541 340.946 20.9319 329.955 15.7503 318.596ZM48.02 523.288C35.4504 510.345 34.5421 490.802 34.7996 471.873L36.2264 358.655C40.2458 364.395 44.5192 370.135 48.9283 375.754L72.3833 510.099C73.9388 519.381 75.8841 528.664 79.124 537.212C67.0728 535.257 56.0553 531.472 48.02 523.288ZM97.0075 558.221C90.3991 553.455 85.8647 547.104 82.6248 539.777C90.3991 540.633 98.3055 540.997 106.08 540.997L118.392 541.122L118.524 541.364C121.764 550.158 125.39 559.073 130.186 566.89C118.006 567.014 106.47 564.938 97.0075 558.221ZM151.699 584.724C144.314 581.181 138.739 575.562 134.076 568.845C141.85 568.356 149.757 567.5 157.402 566.158L169.457 564.203L169.586 564.449C174.51 572.63 179.695 580.814 185.785 587.653C173.991 589.85 162.327 589.85 151.699 584.724ZM210.538 601.819C202.632 599.5 196.023 594.859 190.319 589.119C197.968 587.41 205.485 585.209 212.87 582.647L224.406 578.737L224.534 578.983C230.885 586.186 237.494 593.514 244.753 599.254C233.349 603.285 221.813 605.119 210.538 601.819ZM326.661 585.698C309.811 598.769 291.666 611.469 271.58 609.026C263.416 608.048 256.028 604.63 249.287 599.868C256.418 596.814 263.545 593.514 270.286 589.729L358.022 542.831L381.61 542.952L326.661 585.698ZM487.234 524.511C459.888 541.486 423.86 541.122 394.959 540.997H387.703L405.844 526.83L442.262 521.09C463.646 517.673 489.05 513.641 510.563 502.893C504.341 511.444 496.435 518.771 487.234 524.511ZM529.745 487.627C525.987 490.924 521.967 493.856 517.69 496.542C521.967 489.703 525.468 482.376 528.189 474.802C535.445 471.26 542.443 467.232 548.923 462.466C544.128 471.994 537.648 480.421 529.745 487.627ZM564.865 444.393C561.754 448.299 558.385 451.842 554.627 455.138C557.606 447.689 559.68 439.873 560.978 432.056C567.457 427.415 573.547 422.164 579.122 416.545C576.14 426.559 571.344 435.966 564.865 444.393ZM591.434 396.028C589.099 400.302 586.378 404.455 583.267 408.24C584.822 400.424 585.47 392.486 585.212 384.423C590.784 378.808 595.84 372.7 600.246 366.104C599.337 376.486 596.359 386.624 591.434 396.028ZM602.967 357.435C602.967 344.121 600.635 330.932 596.23 318.35C587.415 292.703 571.734 269.864 556.572 247.635C535.964 217.468 514.708 189.745 481.534 181.562C467.019 178.022 451.853 178.754 437.08 179.61C432.803 179.853 428.266 180.099 423.86 180.22H422.694C425.155 174.48 428.137 168.618 431.248 162.754C432.671 160.067 434.098 157.26 435.396 154.573C443.689 152.982 452.243 152.497 460.668 152.982C494.103 155.547 519.764 179.121 545.297 205.135C564.218 224.311 583.785 244.217 597.006 267.788C611.782 294.048 615.926 321.161 608.538 344.121C607.244 348.641 605.299 353.037 602.967 357.435Z" fill="#EFEFEF" fill-opacity="0.5"/>
</g>
</svg>
