<svg width="468" height="611" viewBox="0 0 468 611" fill="none" xmlns="http://www.w3.org/2000/svg">
<path d="M175.614 566.617C195.633 571.353 218.906 565.659 238.322 551.347C252.666 547.928 266.654 539.706 278.091 527.654C291.597 521.91 303.824 511.519 312.966 497.839C325.201 489.992 335.415 477.775 341.771 462.778C353.264 452.289 361.337 437.146 364.466 419.781C369.692 391.738 359.184 364.809 349.832 341.047C347.975 336.276 346.054 331.592 344.133 326.909C344.618 318.597 343.909 310.266 342.124 302.119C342.026 289.493 339.417 276.999 334.492 265.273C332.062 252.896 327.201 241.084 320.238 230.304C315.531 218.468 308.628 207.602 299.703 198.206C290.104 183.162 277.502 171.103 263.272 163.432C260.545 162.029 257.667 160.648 254.752 159.5C216.888 144.347 174.4 157.883 137.72 173.196L131.479 175.831C130.79 175.127 130.191 174.48 129.502 173.776C118.963 162.56 111.537 148.942 104.349 135.731C99.8692 127.597 95.3341 119.17 89.9587 111.333C76.6021 91.5496 52.8635 71.8148 26.3005 75.2265C13.5273 76.8845 2.9436 83.4023 -5.7168 91.6875C-10.0663 91.7569 -14.3696 92.4929 -18.4077 93.7787C-30.6456 97.439 -39.7309 105.571 -46.7338 115.071L-46.8601 115.242C-51.07 116.036 -55.1735 117.41 -59.0134 119.337C-66.1655 123.028 -72.2464 128.178 -76.8254 134.57C-79.286 137.908 -81.4756 141.423 -83.2366 145.09C-87.249 146.521 -91.061 148.594 -94.481 151.05C-98.3097 153.87 -101.655 157.134 -104.34 160.96C-108.602 166.923 -111.651 173.426 -113.423 180.387C-117.144 182.52 -120.447 185.177 -123.298 188.131C-124.615 189.553 -125.841 191.035 -126.975 192.574C-140.474 210.886 -137.468 236.331 -133.784 254.475C-124.713 299.752 -105.753 328.158 -77.3529 339.017C-48.1027 350.181 -15.2072 340.003 16.087 327.256L16.7365 326.92C46.6399 314.785 77.3484 302.287 107.874 309.718C112.871 310.959 117.641 312.688 122.187 314.904C122.821 315.319 123.365 315.675 123.998 316.09C124.634 316.507 124.987 317.117 125.559 317.62C126.13 318.12 126.421 318.818 126.839 319.346C133.086 332.191 136.056 347.843 135.483 366.117C134.906 384.392 131.111 402.844 127.422 420.603C126.155 426.879 124.759 433.324 123.583 439.66C119.455 462.207 116.16 488.725 123.825 514.046C131.501 540.261 152.003 560.923 175.614 566.617ZM219.339 551.223C195.7 549.573 172.324 532.994 159.89 508.861C147.834 485.485 146.164 459.141 146.157 436.553C146.113 430.053 146.224 423.527 146.362 417.145C146.721 398.981 147.121 380.212 144.361 361.908C142.409 348.703 138.707 337.142 133.651 327.233C140.252 336.505 145.333 346.56 148.934 357.164C155.022 374.601 158.117 392.996 161.132 410.959C162.16 417.214 163.245 423.761 164.455 430.139C168.656 452.684 175.238 478.565 191.654 499.848C207.653 520.604 232.007 533.129 254.951 532.803C250.67 538.246 245.753 543.272 240.393 547.629C239.489 548.306 238.525 549.07 237.623 549.748C231.593 551.002 225.426 551.53 219.339 551.223ZM-25.4297 116.969L-26.9237 119.545C-31.8129 127.636 -36.0966 135.995 -39.7717 144.627C-46.0446 142.929 -52.423 141.923 -58.847 141.524C-55.6106 133.492 -51.4394 124.551 -45.7243 116.619C-39.0886 115.636 -32.1708 115.726 -25.4297 116.969ZM113.066 183.315C109.083 184.891 105.251 186.443 101.24 187.875C91.6653 185.92 82.3968 182.64 73.7924 178.274C59.8287 171.159 47.8639 160.784 36.258 150.647C29.1337 144.458 21.7107 137.945 13.8987 132.324C3.70552 125.011 -9.10861 118.522 -22.4294 115.636C-17.7375 108.178 -11.9624 100.16 -4.92527 93.3468C15.6585 93.1246 35.9595 106.041 49.5352 119.882C56.1289 126.61 62.245 134.167 68.0607 141.402C77.6976 153.296 87.5693 165.601 100.229 175.033C104.234 178.164 108.494 180.954 113.066 183.315ZM289.466 191.501C292.629 193.952 295.511 196.602 298.268 199.422C301.32 204.211 304.028 209.285 306.431 214.41L306.341 214.351C276.252 187.922 231.383 186.828 191.487 189.375L182.716 189.975C172.443 190.606 162.106 191.324 151.843 191.579C148.97 189.826 146.163 187.988 143.48 185.977C148.126 184.96 152.682 183.882 157.236 182.806C160.038 182.102 162.932 181.459 165.733 180.757C204.263 171.86 248.13 165.57 282.046 186.259C284.582 187.92 287.118 189.581 289.466 191.501ZM334.946 282.699L334.918 282.552C333.445 279.814 331.847 277.244 330.032 274.786C329.491 268.595 328.798 262.43 327.705 256.258C329.565 259.382 331.302 262.676 332.732 266.022C333.84 271.444 334.515 277.088 334.946 282.699ZM339.681 316C338.518 313.207 337.325 310.269 336.223 307.391C336.671 302.228 337.054 297.15 337.043 292.065C338.317 295.438 339.375 298.924 340.125 302.459C340.274 306.998 340.087 311.442 339.681 316ZM342.288 327.223C341.796 335.909 340.327 344.463 337.944 352.801C337.304 349.842 336.726 346.799 336.147 343.757C337.993 337.606 339.352 331.39 340.466 325.143L340.778 323.441L341.533 325.334L342.288 327.223ZM340.293 461.684C335.889 465.651 330.825 469.058 325.351 471.566L324.763 471.814C329.942 453.128 329.872 433.542 329.825 415.746C329.827 409.911 329.649 403.958 329.5 398.15C329.381 392.111 329.211 385.781 329.223 379.57C332.104 373.843 334.709 367.936 336.89 361.88C337.115 361.394 337.25 360.847 337.448 360.214L337.896 362.159C339.123 367.784 340.314 373.638 341.477 379.349C346.183 404.127 351.491 432.096 341.65 458.385C341.101 459.675 340.743 460.71 340.293 461.684ZM311.679 496.488C306.588 499.751 301.022 502.199 295.139 503.8L294.524 503.905C298.372 495.768 301.463 487.387 303.7 478.702C309.895 478.318 316.076 477.038 321.878 474.999C319.78 481.492 317.009 487.799 313.515 493.632C312.914 494.632 312.219 495.575 311.679 496.488ZM277.081 526.106C271.49 528.409 265.517 529.951 259.53 530.599L258.825 530.645C264.095 523.312 268.706 515.418 272.402 507.307C278.636 507.964 284.856 507.725 291.003 506.677C288.898 510.626 286.52 514.397 283.871 517.99C282.42 519.958 280.942 521.783 279.31 523.632C278.587 524.428 277.804 525.31 277.081 526.106ZM-23.0145 188.591C-8.43967 194.331 6.74295 200.341 22.711 202.553C45.2771 205.657 67.2335 201.385 88.821 194.335C97.0056 193.985 105.197 193.26 113.279 191.955C121.404 192.96 129.6 193.508 137.866 193.593C145.687 195.923 153.668 197.852 161.784 199.234C181.933 209.259 204.768 215.457 227.114 221.592L235.639 223.878C267.363 232.6 301.373 244.597 322.334 268.095C324.273 276.217 326.394 284.457 328.948 292.474L329.203 293.403L329.4 295.688C329.817 306.239 330.315 317.225 331.709 327.908L331.812 328.863L331.454 331.167C329.882 341.684 328.364 352.491 327.796 363.284L327.744 364.265L326.992 366.562C323.591 376.643 320.028 387.126 317.505 397.653L317.207 398.602L316.093 400.662C310.899 410.077 305.516 419.747 301.047 429.636C296.281 440.472 292.151 451.725 288.274 462.635C286.649 467.027 285.115 471.477 283.424 475.954C271.987 473.792 261.176 469.505 251.511 463.3C228.764 448.781 213.311 426.734 201.267 407.174C197.836 401.626 194.437 395.849 191.157 390.275C181.881 374.43 172.251 357.97 160.131 343.435C149.651 330.86 138.43 321.48 126.681 315.183C125.238 312.589 123.576 310.103 121.852 307.705C103.272 282.976 69.3324 273.436 39.4719 264.918L38.804 264.735C6.69162 255.629 -25.0851 243.7 -39.4796 218.03C-45.7313 206.83 -48.2141 194.165 -46.8703 179.947C-38.9568 182.337 -30.9097 185.451 -23.0145 188.591ZM-47.1019 177.893C-45.7082 167.258 -42.9126 156.906 -38.7805 146.925C-32.6632 148.649 -26.7418 151.004 -21.0728 153.701C-12.4978 157.923 -4.00118 162.98 4.16229 167.944C17.5227 176.061 31.3097 184.329 46.5817 189.128C58.1109 192.62 70.1081 194.388 82.2379 194.336C62.7259 200.21 42.964 203.509 22.906 200.65C7.18157 198.472 -7.81974 192.581 -22.3945 186.84C-30.2898 183.701 -38.6739 180.494 -47.1019 177.893ZM95.0845 192.219C97.2422 191.475 99.2481 190.758 101.319 189.958C103.145 190.393 105.037 190.744 106.838 191.034C103.033 191.46 99.0714 191.912 95.0845 192.219ZM119.887 190.826C122.04 190.459 124.255 190.007 126.468 189.553C128.26 190.22 130.053 190.886 131.756 191.493C127.776 191.426 123.832 191.125 119.887 190.826ZM151.251 193.477C152.854 194.401 154.547 195.381 156.149 196.305C152.279 195.545 148.442 194.555 144.604 193.565C146.746 193.573 149.043 193.554 151.251 193.477ZM315.808 241.235C317.534 247.822 319.108 254.435 320.59 260.988L321.375 264.295C299.865 242.086 266.886 230.51 235.987 221.946C233.153 221.234 230.385 220.437 227.461 219.662C207.306 214.201 186.725 208.589 168.226 200.153C180.738 202.132 193.511 203.392 206.132 204.678L214.87 205.58C251.139 209.412 290.672 216.651 315.808 241.235ZM324.994 271.232C326.036 272.551 327.172 273.928 328.09 275.416C328.352 278.888 328.523 282.298 328.696 285.711C327.298 280.862 326.055 275.989 324.994 271.232ZM331.336 299.621C332.321 302.297 333.304 304.971 334.35 307.559C333.948 312.116 333.39 316.7 332.804 321.137C332.008 314.018 331.582 306.762 331.336 299.621ZM329.986 356.851C330.599 349.639 331.612 342.435 332.561 335.317C333.02 338.157 333.543 340.91 334.066 343.663C332.838 348.061 331.458 352.486 329.986 356.851ZM327.392 370.757C327.298 373.617 327.27 376.388 327.332 379.222C325.254 383.315 323.111 387.496 320.943 391.53C322.778 384.485 325.039 377.591 327.392 370.757ZM315.696 404.844C313.758 413.852 312.335 423.072 310.829 431.855C309.851 437.559 308.898 443.407 307.855 449.194C306.223 458.148 304.522 467.565 302.024 476.969C296.352 477.188 290.662 476.887 285.172 475.955C286.796 471.565 288.421 467.172 289.982 462.866C293.863 451.956 297.929 440.79 302.784 430.012C306.489 421.525 311.142 413.029 315.696 404.844ZM250.231 464.492C259.987 470.754 270.977 475.162 282.507 477.382L281.923 478.905C278.708 487.456 275.267 496.496 271.067 505.292C254.449 503.416 237.343 495.639 223.708 483.157C203.944 465.136 192.766 440.939 184.525 419.682C182.175 413.576 179.887 407.382 177.72 401.393C171.442 384.214 165.057 366.455 155.698 350.176C149.029 338.449 141.395 328.754 133.046 321.129C142.552 327.734 151.083 335.478 158.304 344.269C170.309 358.601 180.003 374.974 189.277 390.818C192.557 396.391 195.954 402.171 199.387 407.72C211.578 427.631 227.21 449.794 250.231 464.492ZM-41.5112 218.602C-26.765 244.885 5.37432 257.051 37.9132 266.308L38.5812 266.491C69.5089 275.2 101.53 284.245 119.727 308.219C119.155 307.716 118.74 307.19 118.167 306.689C95.3187 285.381 60.1553 281.508 29.1153 278.057L28.3828 277.957C-4.9185 274.291 -38.461 267.675 -57.3243 244.789C-71.4415 227.676 -75.4109 204.267 -69.1753 174.854C-62.852 175.57 -56.5725 176.89 -50.5176 178.699C-50.0927 178.852 -49.512 178.978 -49.0855 179.129C-50.5043 193.809 -47.9097 207.052 -41.5112 218.602ZM154.208 351.103C163.386 367.263 169.835 384.939 176.022 402.058C178.189 408.047 180.476 414.237 182.824 420.345C191.186 441.807 202.419 466.296 222.455 484.493C236.271 497.093 253.467 504.929 270.357 506.983C266.632 514.95 262.213 522.587 257.005 529.832L256.31 530.775C233.476 531.681 208.998 519.329 193.089 498.631C176.973 477.67 170.419 451.936 166.272 429.677C165.061 423.302 164.005 416.899 162.886 410.584C159.87 392.621 156.746 374.081 150.632 356.499C146.157 343.799 140.541 333.015 133.624 324.172C141.813 332.199 148.693 341.272 154.208 351.103ZM273.266 505.591C277.338 496.965 280.717 488.01 283.868 479.543L284.488 477.792C290.07 478.784 295.85 479.144 301.521 478.924C299.221 487.695 296.096 496.306 292.029 504.556C285.91 505.751 279.561 506.16 273.266 505.591ZM304.076 476.918C306.447 467.686 308.178 458.413 309.745 449.544C310.789 443.755 311.74 437.909 312.722 432.205C314.52 421.203 316.352 409.969 318.947 398.98C321.781 393.856 324.616 388.736 327.272 383.495C327.347 388.494 327.487 393.406 327.535 398.261C327.659 403.924 327.838 409.878 327.835 415.712C327.875 433.883 328.026 453.904 322.479 472.729C316.642 474.996 310.487 476.421 304.076 476.918ZM335.063 361.445C333.339 366.152 331.344 370.682 329.194 375.238C329.212 371.57 329.32 367.961 329.518 364.411C331.258 358.953 333.151 353.467 334.802 347.95C335.442 350.908 335.929 353.891 336.569 356.849C336.204 358.259 335.71 359.838 335.063 361.445ZM338.512 324.876C337.702 329.802 336.556 334.634 335.322 339.411C334.724 335.844 334.128 332.282 333.621 328.778C334.446 323.102 335.182 317.366 335.827 311.57C336.927 314.45 338.095 317.243 339.259 320.036C339.072 321.563 338.761 323.264 338.512 324.876ZM335.132 288.278C335.209 293.274 335.041 298.242 334.628 303.175C333.354 299.802 332.14 296.342 330.929 292.885C330.665 288.142 330.552 283.373 330.195 278.572C331.204 280.12 332.15 281.755 333.093 283.388C333.739 284.701 334.475 286.071 335.122 287.381L335.132 288.278ZM325.082 252.891C326.264 259.122 327.23 265.466 327.709 271.741C326.548 270.219 325.203 268.58 323.888 267.082L322.406 260.529C321.208 255.049 319.918 249.509 318.473 243.996C319.76 245.347 320.986 246.782 322.147 248.305C323.074 249.42 324.026 250.676 324.887 251.877L325.082 252.891ZM323.701 247.291C321.732 244.861 319.637 242.602 317.477 240.425C315.861 234.418 314 228.379 311.797 222.619C314.218 225.35 316.451 228.332 318.531 231.346C320.651 236.668 322.376 241.983 323.818 247.497L323.701 247.291ZM308.705 219.708C311.026 225.669 313.132 231.744 314.839 237.808C289.247 214.577 250.629 207.555 215.274 203.942L206.534 203.038C191.745 201.599 176.861 200.101 162.402 197.482C159.858 196.196 157.285 194.764 154.804 193.393C164.182 193.063 173.506 192.446 182.919 191.885L191.691 191.286C231.215 188.879 275.598 189.903 305.113 215.832C306.256 216.834 307.397 217.835 308.478 218.923L308.705 219.708ZM148.378 191.723C144.978 191.779 141.487 191.777 138.15 191.748C135.38 190.949 132.584 190.005 129.85 188.976C133.601 188.261 137.324 187.402 140.985 186.628C143.459 188.373 145.842 190.062 148.378 191.723ZM126.663 187.65C123.566 186.384 120.442 184.971 117.381 183.474C121.735 181.759 126.064 179.899 130.39 178.037L130.978 177.789C133.526 180.344 136.353 182.704 139.154 184.92C134.997 186.003 130.875 186.858 126.663 187.65ZM123.371 188.287C119.992 188.864 116.609 189.441 113.229 190.02C110.297 189.62 107.429 189.139 104.562 188.656C108.113 187.302 111.572 185.888 115.122 184.533C117.847 185.939 120.61 187.112 123.371 188.287ZM12.7004 133.949C20.4213 139.514 27.7541 145.965 34.8783 152.154C46.4843 162.291 58.6304 172.785 72.7753 180.018C80.772 184.114 89.2823 187.149 97.9972 189.177C94.8163 190.394 91.6074 191.465 88.4009 192.537C74.4552 193.047 60.7046 191.655 47.3807 187.495C32.2923 182.816 18.5692 174.462 5.38848 166.465C-2.77341 161.499 -11.2701 156.442 -20.0264 152.102C-25.7871 149.344 -31.7086 146.99 -37.9169 145.208C-34.3041 136.661 -29.9932 128.445 -25.3198 120.467C-24.7181 119.466 -24.1142 118.467 -23.4487 117.379C-10.3085 120.149 2.5072 126.637 12.7004 133.949ZM-40.5451 146.405C-44.769 156.327 -47.563 166.677 -48.9567 177.311C-49.2899 177.218 -49.6269 177.126 -49.96 177.033C-56.1683 175.252 -62.45 173.931 -68.8652 173.155C-66.8357 164.207 -64.2255 155.385 -60.9475 146.746C-60.5256 145.625 -60.103 144.507 -59.6827 143.387C-53.1964 143.702 -46.8179 144.707 -40.5451 146.405ZM-62.74 146.08C-65.9908 154.862 -68.6626 163.772 -70.8183 172.891C-77.2958 172.2 -83.7908 172.262 -90.2342 172.988C-88.5233 164.467 -86.0234 155.066 -81.8851 146.354C-75.4073 144.128 -68.6182 143.117 -61.762 143.295L-62.74 146.08ZM-71.1013 174.734C-77.2561 204.582 -73.1142 228.486 -58.759 246.006C-39.3885 269.478 -5.51054 276.188 28.2796 279.92L29.0137 280.019C61.0921 283.519 94.3312 287.27 116.642 307.847C116.009 307.432 115.465 307.076 114.829 306.659C88.4046 289.478 53.0556 291.323 21.811 293.067L21.1064 293.113C-12.4965 294.957 -46.5578 293.966 -69.3826 274.45C-91.5467 255.493 -98.786 223.219 -91.0261 178.434C-90.8472 177.282 -90.6705 176.128 -90.3397 174.95C-84.0738 174.105 -77.5803 174.045 -71.1013 174.734ZM-93.0711 178.11C-100.937 223.585 -93.4336 256.414 -70.7917 275.813C-47.4868 295.771 -12.781 296.802 21.1309 294.903L21.834 294.859C54.1803 293.075 87.4756 291.283 113.241 307.904C112.545 307.574 111.937 307.304 111.242 306.974C82.1114 294.368 47.5561 302.061 17.1872 308.816L16.5083 309.008C-16.1395 316.302 -50.0135 320.887 -76.1135 305.445C-101.329 290.45 -114.515 259.864 -115.135 214.415C-115.26 204.563 -114.82 192.668 -111.791 181.456C-105.814 178.265 -99.399 176.122 -92.5181 175.172L-93.0711 178.11ZM242.122 548.382C247.736 543.684 252.841 538.398 257.283 532.553C257.989 532.508 258.846 532.436 259.553 532.391C264.462 531.927 269.262 530.883 273.799 529.285C264.418 538.367 253.437 544.879 242.122 548.382ZM281.381 524.101C286.125 518.58 290.204 512.497 293.436 506.11C294.203 505.979 294.88 505.79 295.621 505.514C300.395 504.324 304.965 502.497 309.12 500.143C301.425 510.581 291.877 518.792 281.381 524.101ZM330.715 478.505C326.426 484.322 321.382 489.521 315.533 493.812C319.19 487.578 322.055 480.954 324.1 474.173C324.841 473.896 325.491 473.56 326.17 473.369C330.623 471.339 334.658 468.779 338.459 465.811C336.345 470.138 333.68 474.482 330.715 478.505ZM348.043 341.649C357.276 365.208 367.666 391.934 362.729 419.405C359.947 434.841 353.136 448.271 343.64 458.419C353.364 431.924 348.054 403.958 343.348 379.18C342.249 373.382 340.994 367.614 339.83 361.903L338.685 356.712C341.314 348.41 343.091 339.804 343.92 331.21C345.313 334.786 346.676 338.218 348.043 341.649ZM342.359 322.575L341.193 319.78C341.458 317.418 341.724 315.053 341.926 312.775C342.197 315.87 342.431 319.196 342.359 322.575ZM339.731 293.7C339.386 292.713 339.04 291.724 338.693 290.736C338.228 289.544 337.674 288.291 337.119 287.041C337.016 283.168 336.699 279.406 336.321 275.733C337.909 281.593 339.127 287.594 339.731 293.7ZM330.527 257.347C330.028 256.385 329.466 255.508 328.904 254.632C328.13 253.493 327.451 252.411 326.678 251.272C325.808 247.53 324.878 243.875 323.791 240.245C326.673 245.812 328.94 251.485 330.527 257.347ZM314.911 223.136C314.193 222.286 313.567 221.497 312.786 220.732C311.889 219.762 310.9 218.735 310.002 217.764C308.456 214.216 306.846 210.748 305.171 207.37C308.894 212.343 312.118 217.627 314.911 223.136ZM138.484 174.712C174.758 159.766 216.785 146.31 254.041 161.194C256.866 162.283 259.655 163.602 262.228 165.033C273.884 171.269 284.371 180.551 293.157 192.141C292.316 191.462 291.472 190.784 290.629 190.104C288.219 188.271 285.654 186.466 283.055 184.889C248.596 163.844 204.178 170.155 165.34 179.102C162.538 179.806 159.646 180.451 156.843 181.151C151.764 182.394 146.657 183.491 141.577 184.731C138.596 182.395 135.677 179.979 132.947 177.301L138.484 174.712ZM26.477 76.9908C52.1812 73.6497 75.2225 93.0564 88.3154 112.288C93.5991 120.065 98.1358 128.49 102.524 136.567C109.804 149.835 117.256 163.598 127.977 174.936C128.484 175.522 129.055 176.021 129.473 176.549C124.776 178.547 119.924 180.573 115.136 182.511C110.289 179.973 105.607 177.032 101.267 173.81C88.7876 164.493 79.0061 152.25 69.3971 140.503C63.4911 133.206 57.3751 125.649 50.7557 118.775C37.3598 105.056 17.3935 92.2299 -3.17577 91.7031C5.16261 84.2194 14.87 78.5256 26.477 76.9908ZM-7.74595 93.5305C-11.2553 97.1968 -14.5539 101.126 -17.5816 105.233C-20.1045 108.656 -22.3837 112.112 -24.3833 115.369C-30.9101 114.016 -37.6106 113.812 -44.2736 114.651C-37.6581 106.042 -29.0504 98.7376 -17.8614 95.4059C-14.563 94.3942 -11.12 93.731 -7.74595 93.5305ZM-58.1852 120.766C-55.1527 119.201 -51.88 118.044 -48.5266 117.322C-53.5883 124.918 -57.7473 133.108 -60.9887 141.516C-67.6907 141.314 -74.3559 142.152 -80.6451 144.123C-75.7215 134.531 -68.5533 125.902 -58.1852 120.766ZM-93.2836 152.339C-90.577 150.306 -87.5679 148.597 -84.387 147.38C-87.9654 155.696 -90.6027 164.375 -92.1712 173.243C-98.7424 174.142 -105.123 176.053 -111.066 179.013C-107.937 168.753 -102.462 159.143 -93.2836 152.339ZM15.6741 325.083L14.9328 325.359C-15.9276 337.883 -48.4238 348.068 -77.0038 337.089C-104.644 326.474 -123.214 298.449 -132.149 253.897C-135.963 234.653 -139.23 207.009 -122.063 189.193C-119.747 186.777 -117.066 184.599 -114.241 182.77C-116.924 193.7 -117.32 204.988 -117.125 214.381C-116.549 260.435 -103.1 291.575 -77.1856 306.899C-50.5454 322.698 -16.2067 318.032 16.9027 310.661L17.6712 310.528C49.1807 303.504 81.675 296.238 110.169 308.428C109.499 308.243 108.737 307.998 108.069 307.814C77.0266 300.171 44.4663 313.361 15.6741 325.083ZM125.371 513.407C117.787 488.521 121.048 462.234 125.139 439.917C126.317 433.583 127.619 427.076 128.978 420.861C132.729 403.017 136.524 384.564 137.072 366.145C137.481 352.835 136.146 340.796 132.88 330.282C137.594 340.475 140.823 351.219 142.362 362.251C145.097 380.409 144.757 399.093 144.461 417.17C144.324 423.552 144.215 430.079 144.261 436.578C144.319 459.456 145.954 486.031 158.155 509.756C170.855 534.442 194.865 551.436 219.208 553.039C224.101 553.326 229.066 553.152 233.831 552.339C215.528 564.59 194.451 569.31 176.172 564.951C153.05 559.324 133.179 539.079 125.371 513.407Z" fill="#EFEFEF" fill-opacity="0.5"/>
</svg>
